<?xml version="1.0" encoding="utf-8"?>
<!-- Generator: Adobe Illustrator 22.0.1, SVG Export Plug-In . SVG Version: 6.00 Build 0)  -->
<svg version="1.1" id="Layer_1" xmlns="http://www.w3.org/2000/svg" xmlns:xlink="http://www.w3.org/1999/xlink" x="0px" y="0px"
	 viewBox="0 0 396.6 225.4" style="enable-background:new 0 0 396.6 225.4;" xml:space="preserve">
<style type="text/css">
	.st0{fill:#FF3008;}
</style>
<title>Asset 1</title>
<g id="Layer_2_1_">
	<g id="Layer_1-2">
		<path class="st0" d="M381.2,53.3c-17.4-33-52-53.3-89.2-53.3H9.7C4.3,0,0,4.4,0,9.8c0,2.6,1,5,2.8,6.8l61.5,61.9
			c5.4,5.5,12.8,8.5,20.5,8.5H284c12,0,22.8,8.1,25.4,19.8c3.2,13.8-5.4,27.6-19.2,30.8c-1.9,0.4-3.8,0.7-5.7,0.7H147.3
			c-5.4,0-9.7,4.4-9.7,9.8c0,2.6,1,5,2.8,6.8l61.6,61.9c5.4,5.5,12.8,8.5,20.5,8.6h62C365.3,225.4,426.4,139,381.2,53.3"/>
	</g>
</g>
</svg>
