<?xml version="1.0" encoding="utf-8"?>
<!-- Generator: Adobe Illustrator 26.0.3, SVG Export Plug-In . SVG Version: 6.00 Build 0)  -->
<svg version="1.0" id="katman_1" xmlns="http://www.w3.org/2000/svg" xmlns:xlink="http://www.w3.org/1999/xlink" x="0px" y="0px"
	 viewBox="0 0 600 450" style="enable-background:new 0 0 600 450;" xml:space="preserve">
<style type="text/css">
	.st0{fill:#014E6F;}
</style>
<path class="st0" d="M457.9,202.2c-4.2,0-8.4,0.6-12.5,1.7c-1.8,0.5-3.6,1.2-5.4,2c-0.3-0.5-0.7-1-1.2-1.4c-1.5-1.5-3.6-2.3-5.7-2.3
	h-8.6V267h16.6v-33.7c0-6.6,1.1-9.1,3.3-11.4c2.8-2.5,6.5-3.7,10.2-3.4h7.2v-16.4H457.9L457.9,202.2z M154.1,183h-8.6v76
	c0,2.1,0.8,4.2,2.4,5.7c1.5,1.5,3.6,2.3,5.7,2.3h8.6v-76c0-2.1-0.8-4.2-2.4-5.7C158.2,183.8,156.2,183,154.1,183L154.1,183z
	 M197.6,253.9c9.9,0,13-10.6,13-19.5s-3.1-19.6-13-19.6c-9.9,0-12.9,10.7-12.9,19.6S187.7,253.9,197.6,253.9z M197.7,200.6
	c18.8,0,29.2,12.6,29.2,33.6c0,20.9-10.4,33.4-29.2,33.4c-19.1,0-29.1-12.5-29.1-33.4C168.6,213.2,178.5,200.6,197.7,200.6z
	 M111.6,253.9c-9.9,0-12.9-10.6-12.9-19.5s3-19.6,12.9-19.6c4.6,0,8.7,2.7,10.4,6.9h17.3c-3.5-13.4-13-21.1-27.7-21.1
	c-19.2,0-29.1,12.6-29.1,33.6c0,20.9,9.9,33.4,29.1,33.4c14.7,0,24.2-7.7,27.7-21H128c-1.7,0.1-3.4,0.7-4.8,1.7
	C120.4,251.9,116.1,253.9,111.6,253.9L111.6,253.9z M286.1,204.5c-1.5-1.6-3.6-2.5-5.8-2.4h-8.3v40.6c0.3,3.2-1,6.4-3.4,8.5
	c-4.6,3.5-10.9,3.5-15.5,0c-2.4-2.1-3.7-5.2-3.5-8.5v-32.4c0-2.2-0.8-4.2-2.3-5.8c-1.5-1.6-3.6-2.5-5.8-2.4h-8.3v37.7
	c0,11.4,3.2,18.5,8.8,22.5c5.5,3.7,12.1,5.6,18.8,5.3c6.7,0.3,13.3-1.6,18.8-5.3c5.6-4,8.8-11,8.8-22.5v-29.5
	C288.4,208.2,287.5,206.1,286.1,204.5z M351.8,185.3c-1.5-1.5-3.6-2.3-5.7-2.3h-8.3v24c-4.3-4.1-10-6.4-15.9-6.5
	c-17,0-26.8,12.6-26.8,33.6c0,20.9,10.1,33.5,29.5,33.5c19,0,29.6-12.4,29.6-33.2V191C354.2,188.9,353.3,186.8,351.8,185.3
	L351.8,185.3z M324.5,253.9c-10.1,0-13.1-10.6-13.1-19.5s3.1-19.6,13.1-19.6c10,0,13.2,10.6,13.2,19.5v0.2
	C337.7,243.4,334.5,253.9,324.5,253.9z M418.5,230.4c0,1.3-0.3,2.6-0.9,3.8c-0.4,0.7-0.8,1.4-1.4,2c-1.4,1.6-3.5,2.5-5.6,2.4h-33.8
	c0.4,7.7,4.3,15.3,12.7,15.3c4.5,0.1,8.8-2,11.6-5.5c1.4-1.1,3-1.7,4.8-1.7h11.3c-3.5,13.3-13,21-27.7,21
	c-19.1,0-29.1-12.5-29.1-33.4c0-21,9.9-33.6,29.1-33.6c14.7,0,24.3,7.7,27.7,21.1c0.6,2.5,1.1,5.1,1.3,7.7L418.5,230.4L418.5,230.4z
	 M389.5,214.8c-6.4-0.1-11.7,5-12,11.3h24C401.3,219.7,395.9,214.6,389.5,214.8z M517.6,218.6c0.2-5.4-2.4-10.4-6.9-13.4
	c-4.4-3-11.1-4.5-20-4.6c-6.6-0.4-13.1,1.5-18.3,5.5c-3.8,3.2-6.2,7.6-6.8,12.5h15.9c0.7-1.8,2.1-3.2,3.9-3.9c1.9-0.7,3.9-1,5.9-1
	c2.3-0.1,4.6,0.3,6.8,1.1c2.2,0.5,3.7,2.4,3.7,4.7c0,2.6-3.5,5-10.5,5.9c-8.4,1.1-15,2-21,6.5c-4.3,3.7-6.7,9.2-6.3,14.9
	c0,7.2,2.2,12.3,6.4,15.5c3.8,2.8,9.9,5.3,19.8,5.3c7,0.4,14-1.4,20-5c4.7-2.9,7.5-8.1,7.3-13.6L517.6,218.6L517.6,218.6z
	 M499.8,250.1c-2.8,2.6-6.6,4-10.5,3.8c-2.7,0.1-5.3-0.6-7.6-2.1c-1.4-1.2-2.2-3.1-2.1-5c0-1.7,0.6-3.3,1.7-4.5
	c2.3-2.5,4.9-2.9,10.5-4.1c3.6-0.7,7.2-1.9,10.5-3.5v4.9C502.2,244,502.3,247.6,499.8,250.1L499.8,250.1z"/>
</svg>
