<?xml version="1.0"?>
<svg xmlns="http://www.w3.org/2000/svg" viewBox="0 0 32 32">
    <path style="text-indent:0;text-align:start;line-height:normal;text-transform:none;block-progression:tb;-inkscape-font-specification:Bitstream Vera Sans" d="M 2 10 L 2 11 L 2 21 L 2 22 L 3 22 L 16.28125 22 C 16.113347 22.643682 16 23.304957 16 24 C 16 28.406433 19.593567 32 24 32 C 28.406433 32 32 28.406433 32 24 C 32 21.966773 31.225786 20.10141 29.96875 18.6875 L 30 18.6875 L 30 11 L 30 10 L 29 10 L 3 10 L 2 10 z M 4 12 L 28 12 L 28 17.09375 C 26.821063 16.40817 25.457374 16 24 16 C 21.050941 16 18.481052 17.614369 17.09375 20 L 4 20 L 4 12 z M 24 18 C 27.325553 18 30 20.674447 30 24 C 30 27.325553 27.325553 30 24 30 C 20.674447 30 18 27.325553 18 24 C 18 20.674447 20.674447 18 24 18 z M 23 20 L 23 23 L 20 23 L 20 25 L 23 25 L 23 28 L 25 28 L 25 25 L 28 25 L 28 23 L 25 23 L 25 20 L 23 20 z" overflow="visible" font-family="Bitstream Vera Sans"/>
</svg>
